# xmcd CD database file
#
# Track frame offsets:
#	150
#	14817
#	29728
#	43797
#	57615
#	71534
#	85711
#	101142
#	114199
#	127686
#	141400
#	156747
#	170948
#	184698
#	198051
#	211528
#	224754
#	237750
#	251316
#	265564
#
# Disc length: 3721 seconds
#
# Revision: 4
# Processed by: cddbd v1.5.2PL0 Copyright (c) Steve Scherf et al.
# Submitted via: CDex 1.83
#
DISCID=270e8714
DTITLE=Bix Beiderbecke - Bix and Tram CD03
DYEAR=1928
DGENRE=Jazz
TTITLE0=Bless You Sister
TTITLE1=Dusky Stevedore
TTITLE2=Ol' Man River
TTITLE3=Wa Da Da
TTITLE4=Take Your Tomorrow
TTITLE5=Love Affairs
TTITLE6=Rhythm King
TTITLE7=Louisiana
TTITLE8=Margie
TTITLE9=The Love Nest
TTITLE10=The Japanese Sandman
TTITLE11=High Up On A Hilltop
TTITLE12=Sentimental Baby
TTITLE13=Futuristic Rhythm
TTITLE14=Raisin' The Roof
TTITLE15=Louise
TTITLE16=Wait Till You See Ma Cherie
TTITLE17=Baby Won't You Please Come Home
TTITLE18=No One Can Take Your Place
TTITLE19=I Like That
EXTD=YEAR: 1928
EXTT0=
EXTT1=
EXTT2=
EXTT3=
EXTT4=
EXTT5=
EXTT6=
EXTT7=
EXTT8=
EXTT9=
EXTT10=
EXTT11=
EXTT12=
EXTT13=
EXTT14=
EXTT15=
EXTT16=
EXTT17=
EXTT18=
EXTT19=
PLAYORDER=
